<svg width="26" height="22" viewBox="0 0 26 22" fill="none" xmlns="http://www.w3.org/2000/svg">
<path d="M25.5667 2.64139H23.8333V0.441547C23.8342 0.198575 23.6409 0.000863919 23.4015 3.89779e-05C23.3888 -1.60181e-05 23.3762 0.000533936 23.3636 0.00157886L22.233 0.0983718C19.4914 0.328585 16.8023 0.994313 14.264 2.07119L13 2.60487L11.7373 2.07295C9.19869 0.995908 6.50932 0.33007 3.7674 0.0996918L2.6364 0.00157886C2.3979 -0.0188247 2.18828 0.160902 2.16818 0.40305C2.1671 0.415864 2.16661 0.428733 2.16667 0.441547V2.64139H0.433333C0.194025 2.64139 0 2.83839 0 3.08136V21.56C0 21.803 0.194025 22 0.433333 22H25.5667C25.806 22 26 21.803 26 21.56V3.08136C26 2.83839 25.806 2.64139 25.5667 2.64139ZM0.866667 21.1209V3.52133H2.16667V18.9202C2.16585 19.1493 2.33832 19.3407 2.56317 19.3602L3.72927 19.4614C4.04706 19.4884 4.3648 19.5217 4.6826 19.5613C4.78877 19.574 4.89407 19.5912 5.00023 19.6053C5.2104 19.6339 5.42057 19.6624 5.62987 19.6963C5.75467 19.7166 5.87903 19.7403 6.0034 19.7628C6.1932 19.7966 6.383 19.8305 6.57193 19.8684C6.70193 19.8948 6.83193 19.9238 6.96193 19.9524C7.14437 19.992 7.3268 20.0325 7.50837 20.0765C7.63837 20.1081 7.77053 20.142 7.9014 20.1759C8.08037 20.2225 8.2589 20.27 8.437 20.3202C8.567 20.3572 8.697 20.3959 8.827 20.4346C9.0038 20.4877 9.18017 20.5428 9.3561 20.6C9.48496 20.6417 9.6135 20.6845 9.74177 20.7285C9.919 20.7888 10.0949 20.8521 10.2709 20.9168C10.3957 20.9608 10.5209 21.0088 10.6448 21.0567C10.6986 21.0774 10.7519 21.1007 10.8052 21.1209H0.866667ZM12.5667 20.9001L11.7676 20.5613C9.23098 19.4823 6.54322 18.8142 3.8025 18.5814L3.03333 18.5163V0.920233L3.6946 0.976549C6.34693 1.19906 8.94839 1.84296 11.404 2.88469L12.5667 3.37482V20.9001ZM13.4333 20.9001V3.37482L14.5973 2.88425C17.0525 1.84274 19.6535 1.19901 22.3054 0.976549L22.9667 0.920233V18.515L22.2547 18.574C19.5123 18.8051 16.8222 19.4692 14.2814 20.5424L13.4333 20.9001ZM25.1333 21.1201H15.2013C15.2607 21.0967 15.3196 21.0721 15.379 21.0492C15.509 20.9986 15.639 20.9507 15.772 20.9027C15.9419 20.8402 16.1125 20.7797 16.2838 20.721C16.4173 20.677 16.5516 20.633 16.6855 20.589C16.8567 20.5336 17.0287 20.4808 17.2007 20.4289C17.3359 20.3884 17.4716 20.3484 17.6072 20.3105C17.7805 20.2612 17.9539 20.215 18.1315 20.1697C18.2659 20.135 18.4006 20.1002 18.5358 20.0677C18.7161 20.0237 18.8977 19.9841 19.0792 19.9449C19.2092 19.9163 19.3392 19.8868 19.4718 19.8604C19.6625 19.8222 19.854 19.7883 20.0451 19.7544C20.1691 19.7324 20.2926 19.7104 20.4169 19.6884C20.6306 19.6541 20.8446 19.6246 21.0591 19.5956C21.1618 19.5819 21.2645 19.5652 21.3677 19.5516C21.6855 19.5126 22.0048 19.4793 22.3258 19.4517L23.4355 19.3602C23.6609 19.3414 23.8341 19.1498 23.8333 18.9202V3.52133H25.1333V21.1201Z" fill="white"/>
</svg>
