<svg width="26" height="26" viewBox="0 0 26 26" fill="none" xmlns="http://www.w3.org/2000/svg">
<path d="M13 0C5.86683 0 0 5.2523 0 11.8148C0 15.6226 2.01907 18.9814 5.0654 21.1296C5.06097 21.2569 5.0654 21.4536 4.90599 22.074C4.70896 22.8402 4.31931 23.9259 3.50681 25.1296L2.92234 25.9814L3.93188 25.9999C7.43205 26.0161 9.45998 23.611 9.77657 23.2222C10.8105 23.4629 11.8864 23.6296 13 23.6296C20.131 23.6296 26 18.3773 26 11.8148C26 5.2523 20.131 0 13 0ZM13 1.11111C19.6395 1.11111 24.9373 5.94211 24.9373 11.8148C24.9373 17.6874 19.6395 22.5184 13 22.5184C11.8643 22.5184 10.7618 22.3749 9.72343 22.111L9.40463 22.037L9.1921 22.3147C9.1921 22.3147 7.55381 24.2453 4.94142 24.7036C5.41298 23.8194 5.77163 22.9976 5.93324 22.3703C6.15906 21.493 6.16349 20.8888 6.16349 20.8888V20.5925L5.91553 20.4259C2.95334 18.4629 1.06267 15.3356 1.06267 11.8148C1.06267 5.94211 6.35831 1.11111 13 1.11111Z" fill="white"/>
</svg>
