<svg width="26" height="26" viewBox="0 0 26 26" fill="none" xmlns="http://www.w3.org/2000/svg">
<mask id="path-1-inside-1" fill="white">
<path d="M25.8569 11.8638L21.9654 8.27287V2.38996H17.4826V4.13666L12.9998 0L0.143088 11.8638C-0.0380169 12.0313 -0.0487756 12.3133 0.119778 12.4937C0.287883 12.6737 0.571645 12.6839 0.753647 12.5169L2.24149 11.1439V26H9.41398H16.5865H23.759V11.1435L25.2468 12.5164C25.3329 12.5962 25.4427 12.6354 25.5521 12.6354C25.6727 12.6354 25.7924 12.5877 25.8802 12.4933C26.0488 12.3133 26.038 12.0313 25.8569 11.8638ZM18.3791 3.2809H21.0688V7.44563L18.3791 4.9639V3.2809ZM10.3101 25.1091V15.7261C10.3101 15.4958 10.4984 15.3087 10.7301 15.3087H15.2694C15.5012 15.3087 15.6895 15.4958 15.6895 15.7261V25.1091H10.3101ZM22.8619 25.1091H16.586V15.7261C16.586 15.0044 15.9956 14.4177 15.2694 14.4177H10.7301C10.0039 14.4177 9.41353 15.0044 9.41353 15.7261V25.1091H3.1376V10.3163L12.9998 1.21569L19.4012 7.12266L21.9654 9.48856L22.8619 10.3158V25.1091Z"/>
</mask>
<path d="M25.8569 11.8638L21.9654 8.27287V2.38996H17.4826V4.13666L12.9998 0L0.143088 11.8638C-0.0380169 12.0313 -0.0487756 12.3133 0.119778 12.4937C0.287883 12.6737 0.571645 12.6839 0.753647 12.5169L2.24149 11.1439V26H9.41398H16.5865H23.759V11.1435L25.2468 12.5164C25.3329 12.5962 25.4427 12.6354 25.5521 12.6354C25.6727 12.6354 25.7924 12.5877 25.8802 12.4933C26.0488 12.3133 26.038 12.0313 25.8569 11.8638ZM18.3791 3.2809H21.0688V7.44563L18.3791 4.9639V3.2809ZM10.3101 25.1091V15.7261C10.3101 15.4958 10.4984 15.3087 10.7301 15.3087H15.2694C15.5012 15.3087 15.6895 15.4958 15.6895 15.7261V25.1091H10.3101ZM22.8619 25.1091H16.586V15.7261C16.586 15.0044 15.9956 14.4177 15.2694 14.4177H10.7301C10.0039 14.4177 9.41353 15.0044 9.41353 15.7261V25.1091H3.1376V10.3163L12.9998 1.21569L19.4012 7.12266L21.9654 9.48856L22.8619 10.3158V25.1091Z" fill="white"/>
<path d="M25.8569 11.8638L26.5359 11.1297L26.5351 11.1289L25.8569 11.8638ZM21.9654 8.27287H20.9654V8.7108L21.2872 9.00779L21.9654 8.27287ZM21.9654 2.38996H22.9654V1.38996H21.9654V2.38996ZM17.4826 2.38996V1.38996H16.4826V2.38996H17.4826ZM17.4826 4.13666L16.8044 4.87157L18.4826 6.42015V4.13666H17.4826ZM12.9998 0L13.6779 -0.734911L12.9998 -1.36071L12.3216 -0.734914L12.9998 0ZM0.143088 11.8638L-0.535072 11.1289L-0.535899 11.1297L0.143088 11.8638ZM0.119778 12.4937L0.850565 11.8111L0.8505 11.811L0.119778 12.4937ZM0.753647 12.5169L1.42985 13.2536L1.43181 13.2518L0.753647 12.5169ZM2.24149 11.1439H3.24149V8.86046L1.56333 10.409L2.24149 11.1439ZM2.24149 26H1.24149V27H2.24149V26ZM23.759 26V27H24.759V26H23.759ZM23.759 11.1435L24.4371 10.4086L22.759 8.86001V11.1435H23.759ZM25.2468 12.5164L25.9264 11.7829L25.925 11.7815L25.2468 12.5164ZM25.8802 12.4933L25.1503 11.8097L25.1481 11.8121L25.8802 12.4933ZM18.3791 3.2809V2.2809H17.3791V3.2809H18.3791ZM21.0688 3.2809H22.0688V2.2809H21.0688V3.2809ZM21.0688 7.44563L20.3907 8.18057L22.0688 9.72895V7.44563H21.0688ZM18.3791 4.9639H17.3791V5.40186L17.701 5.69885L18.3791 4.9639ZM15.6895 25.1091V26.1091H16.6895V25.1091H15.6895ZM16.586 25.1091H15.586V26.1091H16.586V25.1091ZM9.41353 25.1091V26.1091H10.4135V25.1091H9.41353ZM3.1376 25.1091H2.1376V26.1091H3.1376V25.1091ZM3.1376 10.3163L2.45944 9.58134L2.1376 9.87832V10.3163H3.1376ZM12.9998 1.21569L13.6779 0.480773L12.9998 -0.145002L12.3216 0.48078L12.9998 1.21569ZM19.4012 7.12266L18.7231 7.85758L18.7231 7.85761L19.4012 7.12266ZM21.9654 9.48856L22.6435 8.75362V8.75361L21.9654 9.48856ZM22.8619 10.3158H23.8619V9.87785L23.5401 9.58086L22.8619 10.3158ZM26.5351 11.1289L22.6435 7.53795L21.2872 9.00779L25.1788 12.5987L26.5351 11.1289ZM22.9654 8.27287V2.38996H20.9654V8.27287H22.9654ZM21.9654 1.38996H17.4826V3.38996H21.9654V1.38996ZM16.4826 2.38996V4.13666H18.4826V2.38996H16.4826ZM18.1607 3.40175L13.6779 -0.734911L12.3216 0.734911L16.8044 4.87157L18.1607 3.40175ZM12.3216 -0.734914L-0.535072 11.1289L0.821249 12.5987L13.6779 0.734914L12.3216 -0.734914ZM-0.535899 11.1297C-1.12273 11.6724 -1.15896 12.5898 -0.610944 13.1764L0.8505 11.811C1.06141 12.0368 1.0467 12.3902 0.822076 12.598L-0.535899 11.1297ZM-0.611009 13.1763C-0.0656161 13.7602 0.846311 13.7892 1.42985 13.2536L0.0774446 11.7802C0.296978 11.5787 0.641382 11.5872 0.850565 11.8111L-0.611009 13.1763ZM1.43181 13.2518L2.91965 11.8789L1.56333 10.409L0.075486 11.782L1.43181 13.2518ZM1.24149 11.1439V26H3.24149V11.1439H1.24149ZM2.24149 27H9.41398V25H2.24149V27ZM9.41398 27H16.5865V25H9.41398V27ZM16.5865 27H23.759V25H16.5865V27ZM24.759 26V11.1435H22.759V26H24.759ZM23.0808 11.8784L24.5686 13.2514L25.925 11.7815L24.4371 10.4086L23.0808 11.8784ZM24.5672 13.25C24.8481 13.5103 25.2046 13.6354 25.5521 13.6354V11.6354C25.6808 11.6354 25.8176 11.6821 25.9264 11.7829L24.5672 13.25ZM25.5521 13.6354C25.9358 13.6354 26.3256 13.4826 26.6124 13.1744L25.1481 11.8121C25.2591 11.6928 25.4095 11.6354 25.5521 11.6354V13.6354ZM26.6101 13.1769C27.1598 12.5899 27.1222 11.6719 26.5359 11.1297L25.1779 12.598C24.9538 12.3907 24.9378 12.0367 25.1503 11.8097L26.6101 13.1769ZM18.3791 4.2809H21.0688V2.2809H18.3791V4.2809ZM20.0688 3.2809V7.44563H22.0688V3.2809H20.0688ZM21.7469 6.71068L19.0573 4.22895L17.701 5.69885L20.3907 8.18057L21.7469 6.71068ZM19.3791 4.9639V3.2809H17.3791V4.9639H19.3791ZM11.3101 25.1091V15.7261H9.31009V25.1091H11.3101ZM11.3101 15.7261C11.3101 16.054 11.0447 16.3087 10.7301 16.3087V14.3087C9.95202 14.3087 9.31009 14.9376 9.31009 15.7261H11.3101ZM10.7301 16.3087H15.2694V14.3087H10.7301V16.3087ZM15.2694 16.3087C14.9548 16.3087 14.6895 16.054 14.6895 15.7261H16.6895C16.6895 14.9376 16.0475 14.3087 15.2694 14.3087V16.3087ZM14.6895 15.7261V25.1091H16.6895V15.7261H14.6895ZM15.6895 24.1091H10.3101V26.1091H15.6895V24.1091ZM22.8619 24.1091H16.586V26.1091H22.8619V24.1091ZM17.586 25.1091V15.7261H15.586V25.1091H17.586ZM17.586 15.7261C17.586 14.4462 16.542 13.4177 15.2694 13.4177V15.4177C15.4493 15.4177 15.586 15.5626 15.586 15.7261H17.586ZM15.2694 13.4177H10.7301V15.4177H15.2694V13.4177ZM10.7301 13.4177C9.45757 13.4177 8.41353 14.4462 8.41353 15.7261H10.4135C10.4135 15.5626 10.5503 15.4177 10.7301 15.4177V13.4177ZM8.41353 15.7261V25.1091H10.4135V15.7261H8.41353ZM9.41353 24.1091H3.1376V26.1091H9.41353V24.1091ZM4.1376 25.1091V10.3163H2.1376V25.1091H4.1376ZM3.81576 11.0512L13.6779 1.95061L12.3216 0.48078L2.45944 9.58134L3.81576 11.0512ZM12.3216 1.95062L18.7231 7.85758L20.0794 6.38774L13.6779 0.480773L12.3216 1.95062ZM18.7231 7.85761L21.2873 10.2235L22.6435 8.75361L20.0793 6.38771L18.7231 7.85761ZM21.2873 10.2235L22.1838 11.0508L23.5401 9.58086L22.6435 8.75362L21.2873 10.2235ZM21.8619 10.3158V25.1091H23.8619V10.3158H21.8619Z" fill="white" mask="url(#path-1-inside-1)"/>
</svg>
