<svg width="343" height="48" viewBox="0 0 343 48" fill="none" xmlns="http://www.w3.org/2000/svg">
<path fill-rule="evenodd" clip-rule="evenodd" d="M343 24C343 10.7452 332.255 0 319 0H24C10.7452 0 0 10.7452 0 24C0 37.2548 10.7452 48 24 48H319C332.255 48 343 37.2548 343 24Z" fill="#5B5B5B"/>
<rect x="54" y="11" width="2" height="26" rx="1" fill="black"/>
<rect x="57" y="17" width="2" height="14" rx="1" fill="black"/>
<rect x="60" y="19" width="2" height="10" rx="1" fill="black"/>
<rect x="63" y="14" width="2" height="20" rx="1" fill="black"/>
<rect x="66" y="15" width="2" height="18" rx="1" fill="black"/>
<rect x="69" y="15" width="2" height="18" rx="1" fill="black"/>
<rect x="72" y="15" width="2" height="18" rx="1" fill="black"/>
<rect x="75" y="15" width="2" height="18" rx="1" fill="black"/>
<rect x="78" y="16" width="2" height="16" rx="1" fill="black"/>
<rect x="81" y="14" width="2" height="20" rx="1" fill="black"/>
<rect x="84" y="17" width="2" height="14" rx="1" fill="black"/>
<rect x="120" y="11" width="2" height="26" rx="1" fill="black"/>
<rect x="123" y="17" width="2" height="14" rx="1" fill="black"/>
<rect x="126" y="19" width="2" height="10" rx="1" fill="black"/>
<rect x="129" y="14" width="2" height="20" rx="1" fill="black"/>
<rect x="132" y="15" width="2" height="18" rx="1" fill="black"/>
<rect x="135" y="15" width="2" height="18" rx="1" fill="black"/>
<rect x="138" y="15" width="2" height="18" rx="1" fill="black"/>
<rect x="141" y="15" width="2" height="18" rx="1" fill="black"/>
<rect x="144" y="16" width="2" height="16" rx="1" fill="black"/>
<rect x="147" y="14" width="2" height="20" rx="1" fill="black"/>
<rect x="150" y="17" width="2" height="14" rx="1" fill="black"/>
<rect x="186" y="12" width="2" height="26" rx="1" fill="black"/>
<rect x="189" y="18" width="2" height="14" rx="1" fill="black"/>
<rect x="192" y="20" width="2" height="10" rx="1" fill="black"/>
<rect x="195" y="15" width="2" height="20" rx="1" fill="black"/>
<rect x="198" y="16" width="2" height="18" rx="1" fill="black"/>
<rect x="201" y="16" width="2" height="18" rx="1" fill="black"/>
<rect x="204" y="16" width="2" height="18" rx="1" fill="black"/>
<rect x="207" y="16" width="2" height="18" rx="1" fill="black"/>
<rect x="210" y="17" width="2" height="16" rx="1" fill="black"/>
<rect x="213" y="15" width="2" height="20" rx="1" fill="black"/>
<rect x="216" y="18" width="2" height="14" rx="1" fill="black"/>
<rect x="87" y="11" width="2" height="26" rx="1" fill="black"/>
<rect x="90" y="17" width="2" height="14" rx="1" fill="black"/>
<rect x="93" y="19" width="2" height="10" rx="1" fill="black"/>
<rect x="96" y="14" width="2" height="20" rx="1" fill="black"/>
<rect x="99" y="15" width="2" height="18" rx="1" fill="black"/>
<rect x="102" y="15" width="2" height="18" rx="1" fill="black"/>
<rect x="105" y="15" width="2" height="18" rx="1" fill="black"/>
<rect x="108" y="15" width="2" height="18" rx="1" fill="black"/>
<rect x="111" y="16" width="2" height="16" rx="1" fill="black"/>
<rect x="114" y="14" width="2" height="20" rx="1" fill="black"/>
<rect x="117" y="17" width="2" height="14" rx="1" fill="black"/>
<rect x="153" y="11" width="2" height="26" rx="1" fill="black"/>
<rect x="156" y="17" width="2" height="14" rx="1" fill="black"/>
<rect x="159" y="19" width="2" height="10" rx="1" fill="black"/>
<rect x="162" y="14" width="2" height="20" rx="1" fill="black"/>
<rect x="165" y="15" width="2" height="18" rx="1" fill="black"/>
<rect x="168" y="15" width="2" height="18" rx="1" fill="black"/>
<rect x="171" y="15" width="2" height="18" rx="1" fill="black"/>
<rect x="174" y="15" width="2" height="18" rx="1" fill="black"/>
<rect x="177" y="16" width="2" height="16" rx="1" fill="black"/>
<rect x="180" y="14" width="2" height="20" rx="1" fill="black"/>
<rect x="183" y="17" width="2" height="14" rx="1" fill="black"/>
<rect x="219" y="12" width="2" height="26" rx="1" fill="black"/>
<rect x="222" y="18" width="2" height="14" rx="1" fill="black"/>
<rect x="225" y="20" width="2" height="10" rx="1" fill="black"/>
<rect x="228" y="15" width="2" height="20" rx="1" fill="black"/>
<rect x="231" y="16" width="2" height="18" rx="1" fill="black"/>
<rect x="234" y="16" width="2" height="18" rx="1" fill="black"/>
<rect x="237" y="16" width="2" height="18" rx="1" fill="black"/>
<rect x="240" y="16" width="2" height="18" rx="1" fill="black"/>
<rect x="243" y="17" width="2" height="16" rx="1" fill="black"/>
<rect x="246" y="15" width="2" height="20" rx="1" fill="black"/>
<rect x="249" y="18" width="2" height="14" rx="1" fill="black"/>
<rect x="252" y="12" width="2" height="26" rx="1" fill="black"/>
<rect x="255" y="18" width="2" height="14" rx="1" fill="black"/>
<rect x="258" y="20" width="2" height="10" rx="1" fill="black"/>
<rect x="261" y="15" width="2" height="20" rx="1" fill="black"/>
<rect x="264" y="16" width="2" height="18" rx="1" fill="black"/>
<rect x="267" y="16" width="2" height="18" rx="1" fill="black"/>
<rect x="270" y="16" width="2" height="18" rx="1" fill="black"/>
<rect x="273" y="16" width="2" height="18" rx="1" fill="black"/>
<rect x="276" y="17" width="2" height="16" rx="1" fill="black"/>
<rect x="279" y="15" width="2" height="20" rx="1" fill="black"/>
<rect x="282" y="18" width="2" height="14" rx="1" fill="black"/>
</svg>
