<svg width="24" height="24" viewBox="0 0 24 24" fill="none" xmlns="http://www.w3.org/2000/svg">
<path d="M10.5417 3.30467e-07C10.418 6.58344e-05 10.2983 0.044054 10.2041 0.124121C10.1098 0.204188 10.0471 0.315129 10.027 0.437161L9.51949 3.54416C8.90922 3.72167 8.32729 3.96119 7.77885 4.25951L5.21478 2.42833C5.11439 2.35665 4.99185 2.32285 4.86891 2.33292C4.74597 2.34299 4.63057 2.39629 4.54319 2.48336L2.51312 4.51121C2.42637 4.59801 2.37299 4.71262 2.36237 4.83487C2.35174 4.95713 2.38455 5.07922 2.45503 5.17969L4.25885 7.75985C3.9559 8.31145 3.71106 8.8966 3.52917 9.51257L0.43516 10.0272C0.313491 10.0477 0.203019 10.1106 0.123355 10.2048C0.0436899 10.299 -1.39821e-05 10.4184 8.59858e-07 10.5418V13.4113C-0.000221686 13.534 0.0427614 13.6528 0.121406 13.7469C0.20005 13.841 0.30933 13.9044 0.430065 13.926L3.52612 14.4742C3.70702 15.0891 3.9503 15.6746 4.25376 16.2269L2.42752 18.7816C2.35583 18.882 2.32203 19.0045 2.3321 19.1274C2.34218 19.2504 2.39548 19.3658 2.48255 19.4531L4.51159 21.483C4.59822 21.5697 4.71257 21.6231 4.83461 21.6339C4.95665 21.6447 5.07861 21.6122 5.17911 21.5421L7.76459 19.7323C8.31464 20.0324 8.89799 20.2737 9.51032 20.4528L10.027 23.5639C10.0473 23.6857 10.1101 23.7964 10.2044 23.8763C10.2986 23.9561 10.4181 24 10.5417 24H13.4115C13.5343 24.0002 13.6532 23.9571 13.7473 23.8782C13.8414 23.7994 13.9048 23.6899 13.9261 23.569L14.4795 20.4457C15.0893 20.2638 15.6699 20.019 16.2171 19.7171L18.8199 21.5431C18.9203 21.6136 19.0424 21.6464 19.1647 21.6358C19.287 21.6252 19.4016 21.5718 19.4884 21.4851L21.5175 19.4541C21.6049 19.3665 21.6583 19.2507 21.6682 19.1273C21.6781 19.0039 21.6438 18.881 21.5715 18.7806L19.7157 16.2045C20.0124 15.66 20.2514 15.0829 20.429 14.4772L23.5689 13.927C23.6898 13.9056 23.7994 13.8423 23.8782 13.7482C23.9571 13.6541 24.0002 13.5351 24 13.4124V10.5428C23.9999 10.4191 23.9559 10.2995 23.8759 10.2053C23.7958 10.111 23.6848 10.0483 23.5628 10.0282L20.428 9.51562C20.2492 8.91069 20.0095 8.33464 19.7126 7.79042L21.5429 5.18274C21.6134 5.08228 21.6462 4.96019 21.6356 4.83793C21.625 4.71567 21.5716 4.60107 21.4848 4.51427L19.4548 2.48539C19.3671 2.39796 19.2513 2.34452 19.1279 2.33463C19.0045 2.32474 18.8816 2.35903 18.7811 2.43139L16.212 4.27887C15.6646 3.97816 15.0836 3.7346 14.4724 3.55435L13.9261 0.432066C13.905 0.310967 13.8418 0.201221 13.7476 0.122175C13.6534 0.0431299 13.5344 -0.000137959 13.4115 3.30467e-07H10.5417ZM10.986 1.04348H12.9732L13.493 4.00985C13.5103 4.10934 13.5561 4.20168 13.6248 4.27566C13.6936 4.34964 13.7823 4.40208 13.8803 4.42663C14.6434 4.61678 15.3601 4.9182 16.0143 5.3142C16.1017 5.36719 16.2028 5.39331 16.305 5.38933C16.4072 5.38534 16.506 5.35142 16.589 5.29178L19.0308 3.53702L20.4362 4.94226L18.6976 7.4195C18.6395 7.50214 18.6067 7.59985 18.6031 7.70078C18.5994 7.80171 18.6252 7.90153 18.6772 7.98811C19.0693 8.64077 19.3667 9.35289 19.5567 10.1118C19.5814 10.2106 19.6346 10.3 19.7095 10.369C19.7845 10.438 19.878 10.4835 19.9786 10.5L22.9564 10.9871V12.9742L19.9725 13.498C19.8729 13.5156 19.7806 13.5618 19.7068 13.6309C19.633 13.7 19.5808 13.789 19.5567 13.8872C19.3689 14.6451 19.0713 15.3572 18.6792 16.0098C18.6266 16.0973 18.6008 16.1982 18.6049 16.3002C18.6091 16.4022 18.6431 16.5007 18.7027 16.5836L20.4657 19.0302L19.0604 20.4365L16.587 18.7011C16.504 18.6429 16.4057 18.6102 16.3044 18.6069C16.203 18.6037 16.1029 18.63 16.0163 18.6827C15.3654 19.0787 14.6479 19.3816 13.8874 19.5744C13.7899 19.599 13.7016 19.6512 13.633 19.7248C13.5645 19.7983 13.5187 19.8901 13.5011 19.9891L12.9743 22.9565H10.9839L10.4927 20.0024C10.476 19.9019 10.4302 19.8085 10.3611 19.7337C10.2919 19.6589 10.2023 19.606 10.1034 19.5815C9.33987 19.3933 8.61994 19.0924 7.96127 18.697C7.8748 18.6452 7.77517 18.6196 7.67444 18.6232C7.5737 18.6268 7.47617 18.6595 7.39363 18.7174L4.93962 20.4365L3.53325 19.0282L5.26777 16.6039C5.32705 16.5209 5.36067 16.4223 5.36447 16.3203C5.36828 16.2183 5.3421 16.1175 5.28917 16.0302C4.88948 15.3698 4.58719 14.65 4.39643 13.8832C4.37203 13.7855 4.31988 13.6969 4.24628 13.6282C4.17269 13.5595 4.08078 13.5136 3.98166 13.4959L1.04357 12.9742V10.984L3.97962 10.4959C4.07999 10.4793 4.1733 10.4337 4.24808 10.3647C4.32286 10.2957 4.37584 10.2064 4.40051 10.1077C4.59291 9.33816 4.89505 8.61847 5.29325 7.95958C5.34576 7.87308 5.37198 7.77317 5.36873 7.67204C5.36547 7.5709 5.33287 7.47289 5.27491 7.38995L3.56076 4.94022L4.96815 3.53397L7.40076 5.27242C7.48352 5.33142 7.58171 5.36498 7.68328 5.36896C7.78484 5.37294 7.88536 5.34718 7.97248 5.29484C8.62767 4.90137 9.34927 4.60283 10.1136 4.41542C10.213 4.39096 10.303 4.33783 10.3724 4.26264C10.4418 4.18745 10.4875 4.09352 10.5039 3.99253L10.986 1.04348ZM12 7.82609C9.7008 7.82609 7.82573 9.70099 7.82573 12C7.82573 14.299 9.7008 16.1739 12 16.1739C14.2992 16.1739 16.1743 14.299 16.1743 12C16.1743 9.70099 14.2992 7.82609 12 7.82609ZM12 8.86957C13.7352 8.86957 15.1307 10.2649 15.1307 12C15.1307 13.7351 13.7352 15.1304 12 15.1304C10.2648 15.1304 8.8693 13.7351 8.8693 12C8.8693 10.2649 10.2648 8.86957 12 8.86957Z" fill="white"/>
</svg>
