<svg width="26" height="26" viewBox="0 0 26 26" fill="none" xmlns="http://www.w3.org/2000/svg">
<path d="M5.96333 11.9165H0.542135C0.242886 11.9165 0 12.1592 0 12.4582V25.4582C0 25.7571 0.242886 25.9998 0.542135 25.9998H5.96333C6.26364 25.9998 6.50546 25.7571 6.50546 25.4581V12.4581C6.50541 12.1591 6.26258 11.9165 5.96333 11.9165ZM5.42119 24.9165H1.08427V12.9998H5.42119V24.9165Z" fill="white"/>
<path d="M15.6998 0H10.2786C9.97934 0 9.73645 0.242683 9.73645 0.541683V25.4583C9.73645 25.7573 9.97934 26 10.2786 26H15.6998C15.999 26 16.2419 25.7573 16.2419 25.4583V0.541683C16.2419 0.242683 15.999 0 15.6998 0ZM15.1576 24.9166H10.8207V1.08331H15.1576V24.9166Z" fill="white"/>
<path d="M25.4578 5.4165H20.0366C19.7374 5.4165 19.4945 5.65919 19.4945 5.95819V25.4582C19.4945 25.7572 19.7374 25.9998 20.0366 25.9998H25.4578C25.7571 25.9998 26 25.7572 26 25.4582V5.95819C26 5.65914 25.7571 5.4165 25.4578 5.4165ZM24.9157 24.9165H20.5788V6.49982H24.9157V24.9165Z" fill="white"/>
</svg>
