<svg width="125" height="100" viewBox="0 0 125 100" fill="none" xmlns="http://www.w3.org/2000/svg">
<rect x="0.5" y="0.5" width="124" height="99" rx="19.5" stroke="white"/>
<path d="M63 27.0001C62.586 27.0001 62.25 26.6641 62.25 26.2501V10.75C62.25 10.336 62.586 10 63 10C63.414 10 63.75 10.336 63.75 10.75V26.2501C63.75 26.6641 63.414 27.0001 63 27.0001Z" fill="white"/>
<path d="M62.9998 26.9999C62.8077 26.9999 62.6158 26.9268 62.4697 26.7798L58.4697 22.7798C58.1768 22.4869 58.1768 22.0119 58.4697 21.7188C58.7627 21.4258 59.2377 21.4258 59.5308 21.7188L63.0007 25.1888L66.4707 21.7188C66.7637 21.4258 67.2388 21.4258 67.5318 21.7188C67.8248 22.0119 67.8248 22.4869 67.5318 22.7798L63.5317 26.7798C63.3837 26.9268 63.1918 26.9999 62.9998 26.9999Z" fill="white"/>
<path d="M72.2499 34.0001H53.7501C52.233 34.0001 51 32.767 51 31.25V26.75C51 26.336 51.336 26 51.75 26C52.164 26 52.5 26.336 52.5 26.75V31.25C52.5 31.939 53.061 32.5001 53.7501 32.5001H72.2499C72.939 32.5001 73.5 31.939 73.5 31.25V26.75C73.5 26.336 73.836 26 74.25 26C74.664 26 75 26.336 75 26.75V31.25C75 32.767 73.767 34.0001 72.2499 34.0001Z" fill="white"/>
</svg>
