<svg width="24" height="26" viewBox="0 0 24 26" fill="none" xmlns="http://www.w3.org/2000/svg">
<path d="M21.3986 18.5852L16.4144 16.5156C15.9443 16.3202 15.6522 15.9276 15.6522 15.4908V14.0257C15.7717 13.9044 15.8974 13.7661 16.0273 13.6136C16.6737 12.8553 17.1918 12.0111 17.5685 11.1007C18.3047 10.8203 18.7826 10.2158 18.7826 9.53333V7.8C18.7826 7.3827 18.5948 6.9784 18.2609 6.6625V4.3576C18.2901 4.11927 18.4049 2.70053 17.1694 1.5301C16.0977 0.5148 14.3588 0 12 0C9.64122 0 7.90226 0.5148 6.83061 1.52967C5.59513 2.7001 5.70991 4.11927 5.73913 4.3576V6.6625C5.40522 6.9784 5.21739 7.3827 5.21739 7.8V9.53333C5.21739 10.0607 5.50591 10.5525 5.99843 10.8806C6.47635 12.4523 7.47652 13.6366 7.82609 14.0166V15.4505C7.82609 15.87 7.55061 16.2548 7.10765 16.4558L2.45322 18.5644C0.939652 19.2504 0 20.5651 0 21.9969V23.4C0 25.4566 7.84957 26 12 26C16.1504 26 24 25.4566 24 23.4V22.0814C24 20.5916 23.003 19.2517 21.3986 18.5852ZM22.9565 23.4C22.9565 23.988 19.0894 25.1333 12 25.1333C4.91061 25.1333 1.04348 23.988 1.04348 23.4V21.9969C1.04348 20.8828 1.77496 19.8588 2.95252 19.3258L7.60696 17.2172C8.38591 16.864 8.86957 16.1867 8.86957 15.4505V13.7089L8.748 13.5885C8.73548 13.5759 7.4567 12.2911 6.96887 10.527L6.92139 10.3554L6.74348 10.26C6.44139 10.098 6.26087 9.82627 6.26087 9.53333V7.8C6.26087 7.5569 6.38504 7.33027 6.61043 7.16083L6.78261 7.03213V4.33333L6.77791 4.27657C6.77635 4.26487 6.59896 3.06367 7.6153 2.1008C8.47983 1.2818 9.9553 0.866667 12 0.866667C14.0374 0.866667 15.5097 1.27877 16.3753 2.09213C17.3911 3.0459 17.2231 4.26617 17.2221 4.27657L17.2174 7.03213L17.3896 7.16127C17.615 7.33027 17.7391 7.5569 17.7391 7.8V9.53333C17.7391 9.91163 17.4407 10.2427 16.9972 10.3562L16.7374 10.4225L16.6539 10.637C16.3049 11.5388 15.8077 12.3717 15.1753 13.1127C15.0203 13.2951 14.8696 13.4567 14.7386 13.5802L14.6087 13.7033V15.4908C14.6087 16.2578 15.1216 16.9472 15.9475 17.2904L20.9317 19.36C22.1807 19.8787 22.9565 20.9213 22.9565 22.0814V23.4Z" fill="white"/>
</svg>
