<svg width="26" height="26" viewBox="0 0 26 26" fill="none" xmlns="http://www.w3.org/2000/svg">
<g clip-path="url(#clip0)">
<path d="M13 4.52148C10.8183 4.52148 9.04346 6.29625 9.04346 8.47802C9.04346 10.6598 10.8182 12.4346 13 12.4346C15.1818 12.4346 16.9565 10.6597 16.9565 8.47802C16.9565 6.2963 15.1818 4.52148 13 4.52148ZM13 11.3041C11.4423 11.3041 10.1739 10.0357 10.1739 8.47802C10.1739 6.9203 11.4423 5.65195 13 5.65195C14.5577 5.65195 15.826 6.9203 15.826 8.47802C15.826 10.0357 14.5578 11.3041 13 11.3041Z" fill="white"/>
<path d="M20.9131 9.04346C19.3554 9.04346 18.087 10.3118 18.087 11.8695C18.087 13.4273 19.3554 14.6956 20.9131 14.6956C22.4708 14.6956 23.7392 13.4273 23.7392 11.8695C23.7392 10.3118 22.4708 9.04346 20.9131 9.04346ZM20.9131 13.5652C19.9782 13.5652 19.2175 12.8044 19.2175 11.8695C19.2175 10.9346 19.9782 10.1739 20.9131 10.1739C21.848 10.1739 22.6088 10.9346 22.6088 11.8695C22.6088 12.8044 21.8479 13.5652 20.9131 13.5652Z" fill="white"/>
<path d="M5.16725 9.04346C3.60837 9.04346 2.34119 10.3118 2.34119 11.8695C2.34119 13.4273 3.60953 14.6956 5.16725 14.6956C6.72497 14.6956 7.99331 13.4273 7.99331 11.8695C7.99331 10.3118 6.72608 9.04346 5.16725 9.04346ZM5.16725 13.5652C4.23236 13.5652 3.4716 12.8044 3.4716 11.8695C3.4716 10.9346 4.23236 10.1739 5.16725 10.1739C6.10214 10.1739 6.8629 10.9346 6.8629 11.8695C6.8629 12.8044 6.10208 13.5652 5.16725 13.5652Z" fill="white"/>
<path d="M12.9999 13.5654C8.94844 13.5654 5.6521 16.8618 5.6521 20.9133C5.6521 21.2253 5.90533 21.4785 6.21733 21.4785C6.52933 21.4785 6.78257 21.2253 6.78257 20.9133C6.78257 17.4847 9.57133 14.6959 12.9999 14.6959C16.4285 14.6959 19.2173 17.4847 19.2173 20.9133C19.2173 21.2253 19.4705 21.4785 19.7825 21.4785C20.0945 21.4785 20.3478 21.2253 20.3478 20.9133C20.3478 16.8618 17.0514 13.5654 12.9999 13.5654Z" fill="white"/>
<path d="M20.913 15.8262C19.9827 15.8262 19.0715 16.0805 18.278 16.561C18.0123 16.7238 17.9264 17.0708 18.0881 17.3376C18.2519 17.6044 18.5979 17.6892 18.8647 17.5275C19.4807 17.1533 20.1884 16.9566 20.913 16.9566C23.0947 16.9566 24.8695 18.7314 24.8695 20.9131C24.8695 21.2251 25.1228 21.4784 25.4348 21.4784C25.7468 21.4784 26 21.2251 26 20.9131C26 18.1085 23.7176 15.8262 20.913 15.8262Z" fill="white"/>
<path d="M7.72088 16.5598C6.92843 16.0805 6.01734 15.8262 5.08695 15.8262C2.28235 15.8262 0 18.1085 0 20.9131C0 21.2251 0.253235 21.4784 0.565235 21.4784C0.877235 21.4784 1.13047 21.2251 1.13047 20.9131C1.13042 18.7314 2.90523 16.9566 5.08695 16.9566C5.81158 16.9566 6.5192 17.1533 7.13419 17.5263C7.39982 17.688 7.74801 17.6032 7.9108 17.3364C8.07358 17.0696 7.98763 16.7226 7.72088 16.5598Z" fill="white"/>
</g>
<defs>
<clipPath id="clip0">
<rect width="26" height="26" fill="white"/>
</clipPath>
</defs>
</svg>
